<svg xmlns="http://www.w3.org/2000/svg" viewBox="0 0 48 48">
  <defs>
    <linearGradient id="grad1" x1="0%" y1="0%" x2="100%" y2="100%">
      <stop offset="0%" style="stop-color:#1e40af;stop-opacity:1" />
      <stop offset="100%" style="stop-color:#2563eb;stop-opacity:1" />
    </linearGradient>
  </defs>
  
  <!-- Top-left puzzle piece -->
  <path d="M 4 4 L 20 4 L 20 8 C 20 10 22 10 22 12 C 22 14 20 14 20 16 L 20 20 L 16 20 C 14 20 14 22 12 22 C 10 22 10 20 8 20 L 4 20 Z" 
        fill="url(#grad1)" opacity="0.9"/>
  
  <!-- Top-right puzzle piece -->
  <path d="M 28 4 L 44 4 L 44 20 L 40 20 C 38 20 38 22 36 22 C 34 22 34 20 32 20 L 28 20 L 28 16 C 28 14 26 14 26 12 C 26 10 28 10 28 8 Z" 
        fill="url(#grad1)" opacity="0.9"/>
  
  <!-- Bottom-left puzzle piece -->
  <path d="M 4 28 L 8 28 C 10 28 10 26 12 26 C 14 26 14 28 16 28 L 20 28 L 20 32 C 20 34 22 34 22 36 C 22 38 20 38 20 40 L 20 44 L 4 44 Z" 
        fill="url(#grad1)" opacity="0.9"/>
  
  <!-- Bottom-right puzzle piece -->
  <path d="M 28 28 L 32 28 C 34 28 34 26 36 26 C 38 26 38 28 40 28 L 44 28 L 44 44 L 28 44 L 28 40 C 28 38 26 38 26 36 C 26 34 28 34 28 32 Z" 
        fill="url(#grad1)" opacity="0.9"/>
  
  <!-- Center connection lines (subtle) -->
  <line x1="20" y1="24" x2="28" y2="24" stroke="#2563eb" stroke-width="1.5" opacity="0.4"/>
  <line x1="24" y1="20" x2="24" y2="28" stroke="#2563eb" stroke-width="1.5" opacity="0.4"/>
  
  <!-- Small center dot -->
  <circle cx="24" cy="24" r="2" fill="#2563eb" opacity="0.6"/>
</svg>
